# xmcd
#
# Track frame offsets:
#	150
#	15558
#	33280
#	47370
#	64930
#	77712
#	106618
#	128978
#	149149
#	167697
#	185826
#	198843
#	208969
#	222818
#	240229
#	256553
#	268954
#
# Disc length: 3890 seconds
#
# Revision: 1
# Processed by: cddbd v1.5.2PL0 Copyright (c) Steve Scherf et al.
# Submitted via: audiograbber 1.83.01
#
DISCID=ef0f3011
DTITLE=The Brendan Adams Trio - 17 eternities
DYEAR=2007
DGENRE=Acoustic
TTITLE0=By design
TTITLE1=17 eternities
TTITLE2=Patsi's blue eyes
TTITLE3=Butterfly chronicles
TTITLE4=Latley the world
TTITLE5=Keeps turning
TTITLE6=Brendan Adams 25th epiphany
TTITLE7=Type of guy
TTITLE8=Forever, sometimes
TTITLE9=Cape times
TTITLE10=Jill is more lovely
TTITLE11=Brighter
TTITLE12=My secret places
TTITLE13=Are these conversations with God
TTITLE14=Love and pain
TTITLE15=Angels come
TTITLE16=Freedom from your blues
EXTD=
EXTT0=
EXTT1=
EXTT2=
EXTT3=
EXTT4=
EXTT5=
EXTT6=
EXTT7=
EXTT8=
EXTT9=
EXTT10=
EXTT11=
EXTT12=
EXTT13=
EXTT14=
EXTT15=
EXTT16=
PLAYORDER=
